# xmcd CD database file
#
# Track frame offsets:
#	151
#	13394
#	25628
#	35848
#	47914
#	63235
#	74390
#	84547
#	97692
#	110522
#	121118
#	134667
#	149123
#	158689
#	173034
#	184835
#	198233
#	210879
#	223733
#	235468
#	247344
#	257820
#	271722
#	285306
#
# Disc length: 3979 seconds
#
# Revision: 0
# Processed by: cddbd v1.5.2PL0 Copyright (c) Steve Scherf et al.
# Submitted via: CDex 1.70beta2
#
DISCID=640f8918
DTITLE=Ernst Mosch - Portrait
DYEAR=1980
DGENRE=Blasmusik
TTITLE0=Gruß an Böhmen (Marsch)
TTITLE1=Moldau-Walzer
TTITLE2=Böhmisches Herz (Polka)
TTITLE3=Mama (Walzer)
TTITLE4=Nur die Liebe zählt (Polka)
TTITLE5=Veteranen-Marsch
TTITLE6=Start frei (Marsch)
TTITLE7=Daß ich dich gerne mag, sag' ich dir jeden Tag (Walzer)
TTITLE8=Der Strohwitwer
TTITLE9=Kleines Grammophon, spiel mir noch was vor (Polka)
TTITLE10=Erinnerung an Karlsbad (Walzer)
TTITLE11=Brünner Mädel (Polka)
TTITLE12=El Picador (Marsch)
TTITLE13=Du bist die Frau, die ich erseh'n (Polka)
TTITLE14=Herzeleid (Walzer)
TTITLE15=Kannst du Knödel kochen (Polka)
TTITLE16=Musikantenliebe (Walzer)
TTITLE17=Laß uns mit den Wolken ziehn (Polka)
TTITLE18=Wenn du Heimweh hast nach mir (Polka)
TTITLE19=Josefi-Polka
TTITLE20=Ein Traum von dir (Walzer)
TTITLE21=Schöne Pragerin (Polka)
TTITLE22=Tanz diesen Walzer zum Abschied mit mir (Walzer)
TTITLE23=Starparade (Marsch)
EXTD=YEAR: 1980
EXTT0=
EXTT1=
EXTT2=
EXTT3=
EXTT4=
EXTT5=
EXTT6=
EXTT7=
EXTT8=
EXTT9=
EXTT10=
EXTT11=
EXTT12=
EXTT13=
EXTT14=
EXTT15=
EXTT16=
EXTT17=
EXTT18=
EXTT19=
EXTT20=
EXTT21=
EXTT22=
EXTT23=
PLAYORDER=
